# xmcd
#
# Track frame offsets: 
#        150
#        47896
#        86332
#        105617
#        119188
#        148577
#        178438
#        236426
#        268884
#        303686
#
# Disc length: 4609 seconds
#
# Revision: 0
# Processed by: cddbd v1.5.2PL0 Copyright (c) Steve Scherf et al.
# Submitted via: ExactAudioCopyFreeDBPlugin 1.0
#
DISCID=9811ff0a
DTITLE=Gary Moore - 2010 - Guitar Mindtrip
DYEAR=2010
DGENRE=
TTITLE0=I Love You More Than You'll Ever Know
TTITLE1=Driftin'
TTITLE2=Merry-Go-Round
TTITLE3=Supernatural
TTITLE4=Love That Burns
TTITLE5=Where Did We Go Wrong
TTITLE6=Ball and Chain
TTITLE7=Looking For Somebody
TTITLE8=As the Years Go Passing By
TTITLE9=Drowning In Tears
EXTD=
EXTT0=
EXTT1=
EXTT2=
EXTT3=
EXTT4=
EXTT5=
EXTT6=
EXTT7=
EXTT8=
EXTT9=
PLAYORDER=
